<?xml version="1.0" standalone="no"?>
<!DOCTYPE svg PUBLIC "-//W3C//DTD SVG 20010904//EN"
 "http://www.w3.org/TR/2001/REC-SVG-20010904/DTD/svg10.dtd">
<svg version="1.0" xmlns="http://www.w3.org/2000/svg"
 width="1291.000000pt" height="1291.000000pt" viewBox="0 0 1291.000000 1291.000000"
 preserveAspectRatio="xMidYMid meet">
<metadata>
Created by potrace 1.11, written by Peter Selinger 2001-2013
</metadata>
<g transform="translate(0.000000,1291.000000) scale(0.100000,-0.100000)"
fill="#000000" stroke="none">
<path d="M6165 12904 c-22 -2 -116 -8 -210 -15 -203 -13 -592 -66 -800 -109
-716 -148 -1395 -413 -2010 -783 -491 -295 -872 -594 -1272 -998 -344 -349
-554 -607 -818 -1008 -483 -733 -811 -1564 -959 -2421 -135 -789 -125 -1601
30 -2380 299 -1499 1125 -2842 2339 -3801 613 -484 1342 -868 2075 -1090 538
-163 1011 -249 1550 -279 1386 -78 2756 292 3910 1055 930 615 1664 1431 2186
2430 332 636 575 1419 663 2135 39 323 46 440 46 820 0 381 -7 506 -46 815
-231 1844 -1264 3513 -2812 4545 -519 345 -996 577 -1578 768 -479 157 -956
255 -1454 298 -159 14 -751 27 -840 18z m485 -2714 l0 -640 715 0 715 0 0
-260 0 -260 -715 0 -715 0 0 -180 0 -180 -255 0 -255 0 0 180 0 180 -710 0
-710 0 0 260 0 260 710 0 710 0 0 633 c0 349 3 637 7 640 3 4 118 7 255 7
l248 0 0 -640z m380 -1689 c6 -11 10 -89 10 -181 l0 -162 45 40 c56 49 114 66
208 60 115 -8 191 -59 239 -163 22 -47 23 -64 26 -303 3 -190 0 -257 -9 -268
-9 -11 -27 -14 -63 -12 l-51 3 -5 250 c-5 243 -6 251 -30 295 -65 116 -252
121 -327 9 l-28 -42 -5 -248 c-3 -162 -9 -252 -16 -259 -6 -6 -33 -10 -60 -8
l-49 3 -3 490 c-1 270 0 496 3 503 3 7 24 12 54 12 39 0 53 -4 61 -19z m-242
-49 c5 -69 -1 -72 -164 -72 l-144 0 -2 -432 -3 -433 -48 -3 c-27 -2 -55 2 -63
9 -12 10 -14 81 -14 435 l0 424 -143 0 c-157 0 -167 3 -167 56 0 69 -26 65
379 62 l366 -3 3 -43z m1397 -213 c73 -27 114 -64 152 -136 33 -61 60 -195 49
-239 l-6 -24 -256 0 c-213 0 -256 -2 -260 -14 -10 -26 26 -125 59 -162 17 -21
46 -43 64 -50 73 -31 174 -6 229 55 25 28 33 31 86 31 67 0 78 -12 55 -57 -23
-43 -66 -79 -132 -110 -54 -25 -71 -28 -165 -28 -94 0 -110 3 -156 27 -97 51
-146 131 -166 268 -23 155 24 319 111 391 84 69 226 89 336 48z m639 -1025
c13 -5 16 -27 16 -135 l0 -129 94 0 c107 0 119 -7 114 -67 l-3 -38 -102 -3
-103 -3 0 -202 c0 -290 8 -307 138 -317 l77 -5 0 -50 0 -50 -77 -3 c-93 -3
-146 9 -189 45 -59 50 -63 73 -69 338 l-5 240 -65 3 c-70 3 -80 10 -80 58 0
44 16 54 87 54 l63 0 0 128 c0 71 3 132 7 135 8 9 76 9 97 1z m1796 -13 c6
-13 10 -184 10 -486 0 -302 -4 -473 -10 -486 -8 -14 -21 -19 -53 -19 -52 0
-67 13 -67 58 l0 34 -45 -40 c-57 -50 -113 -66 -212 -60 -86 5 -140 27 -185
75 -105 112 -128 366 -48 530 51 104 133 153 255 153 78 0 142 -22 194 -66
l41 -36 0 175 c0 131 3 177 13 180 6 3 31 6 54 6 32 1 45 -4 53 -18z m-3917
-39 c109 -54 149 -125 148 -265 0 -115 -65 -217 -158 -248 -18 -6 -33 -15 -33
-21 0 -6 48 -93 106 -194 58 -101 104 -191 102 -201 -2 -14 -14 -19 -53 -21
-28 -1 -56 1 -62 6 -7 4 -62 93 -122 197 l-109 190 -126 3 -126 3 0 -181 c0
-106 -4 -189 -10 -201 -8 -15 -21 -19 -58 -19 -27 0 -53 5 -60 12 -9 9 -12
129 -12 479 0 257 3 475 6 484 6 15 32 16 253 13 l247 -3 67 -33z m785 -232
c66 -28 124 -93 153 -169 18 -47 22 -77 22 -181 0 -158 -20 -219 -97 -297 -66
-67 -131 -87 -255 -81 -104 5 -162 29 -220 88 -66 68 -85 131 -85 290 -1 127
1 138 27 195 42 90 104 146 197 176 50 16 201 4 258 -21z m817 -2 c129 -67
186 -199 172 -399 -8 -110 -36 -185 -88 -239 -58 -59 -116 -83 -220 -88 -176
-9 -273 50 -331 199 -31 79 -30 280 1 360 53 139 157 201 326 196 74 -3 99 -8
140 -29z m1305 16 c41 -12 66 -29 109 -72 71 -72 95 -134 96 -247 l0 -80 -259
-3 -259 -2 6 -52 c22 -179 205 -246 342 -126 41 36 48 39 97 36 46 -3 53 -6
56 -25 5 -32 -68 -107 -136 -140 -45 -22 -73 -28 -146 -31 -114 -5 -181 17
-245 80 -80 80 -106 164 -99 329 3 87 8 114 31 164 42 89 108 150 188 174 53
15 160 13 219 -5z m-1932 -1033 c4 -55 -4 -61 -88 -61 -101 0 -140 -42 -140
-150 l0 -50 98 0 c108 0 122 -6 122 -55 0 -49 -14 -55 -122 -55 l-98 0 -2
-312 -3 -313 -55 0 -55 0 -5 310 -5 310 -75 5 -75 5 -3 38 c-5 57 9 67 89 67
l69 0 0 66 c0 177 74 245 260 241 l85 -2 3 -44z m-639 5 c7 -8 11 -37 9 -68
l-3 -53 -70 0 -70 0 -3 53 c-4 70 7 82 73 82 33 0 57 -5 64 -14z m-775 -32 c3
-9 6 -204 6 -435 l0 -419 248 -2 247 -3 0 -55 0 -55 -304 -3 c-216 -2 -308 1
-317 9 -12 9 -14 95 -14 479 0 258 3 475 6 484 5 12 20 16 64 16 44 0 59 -4
64 -16z m1960 -254 c105 -53 167 -164 169 -305 l2 -80 -260 -5 -260 -5 3 -35
c5 -56 46 -135 86 -165 71 -54 186 -42 259 27 36 34 45 38 94 38 37 0 55 -4
59 -14 11 -29 -42 -98 -106 -138 -97 -59 -263 -65 -359 -13 -63 35 -112 94
-142 173 -28 74 -32 239 -6 323 31 103 99 178 191 211 74 27 204 21 270 -12z
m-1196 8 c9 -9 12 -102 12 -358 0 -256 -3 -349 -12 -358 -16 -16 -90 -16 -106
0 -9 9 -12 102 -12 358 0 256 3 349 12 358 7 7 30 12 53 12 23 0 46 -5 53 -12z
m-392 -974 c24 -118 40 -138 204 -254 240 -168 283 -189 605 -295 121 -40 249
-85 285 -101 65 -28 66 -28 300 -30 294 -2 507 -29 671 -84 106 -36 276 -127
334 -180 69 -63 132 -95 243 -123 80 -20 107 -22 326 -20 155 2 236 -1 230 -7
-15 -15 -239 -50 -322 -50 -43 0 -134 9 -204 19 -133 20 -200 44 -282 100 -78
54 -371 209 -432 229 -49 16 -101 21 -301 26 -134 4 -243 4 -243 0 0 -4 48
-55 108 -114 59 -58 127 -132 151 -164 44 -57 44 -57 33 -104 -6 -26 -14 -70
-17 -98 l-7 -52 39 -6 c21 -4 110 -11 199 -16 88 -5 183 -14 210 -20 87 -20
156 -72 217 -164 34 -52 27 -58 -13 -12 -68 77 -247 139 -430 150 -58 4 -133
9 -167 12 l-63 6 0 -45 c0 -72 16 -100 110 -186 78 -71 105 -89 236 -151 81
-39 145 -72 143 -74 -2 -3 -45 4 -94 14 -74 14 -124 34 -270 108 -99 49 -190
100 -202 113 -32 35 -43 73 -43 150 0 47 -4 71 -12 73 -7 2 -58 12 -113 21
-156 27 -210 48 -350 136 -94 59 -158 108 -230 178 -117 113 -141 129 -266
177 -270 103 -301 113 -294 96 36 -87 37 -101 16 -130 -27 -39 -67 -67 -191
-137 -67 -37 -130 -82 -175 -125 -38 -37 -95 -85 -126 -108 -51 -37 -58 -46
-79 -111 -30 -93 -25 -163 15 -221 17 -24 72 -72 130 -113 55 -39 129 -100
165 -136 36 -36 98 -95 138 -131 68 -61 72 -67 72 -108 0 -47 -32 -121 -78
-179 -62 -80 -67 -117 -23 -184 30 -45 54 -145 33 -138 -6 2 -34 31 -63 63
l-51 60 5 60 c2 34 16 89 31 123 47 111 29 201 -55 280 -24 23 -89 84 -144
135 -84 80 -111 99 -171 121 -121 46 -197 150 -197 267 0 61 41 179 77 219 31
36 262 227 321 266 49 32 73 61 126 150 28 46 31 124 6 170 -18 36 -124 139
-187 182 -25 17 -56 43 -70 58 -14 15 -38 33 -53 41 -27 15 -31 13 -135 -59
-140 -96 -140 -98 -33 -212 68 -72 81 -91 81 -119 0 -51 -38 -110 -120 -183
-84 -75 -138 -136 -152 -172 -11 -30 2 -71 38 -118 14 -19 24 -37 21 -40 -3
-3 -27 3 -53 13 -57 22 -87 64 -80 112 5 31 80 144 164 246 23 27 43 60 47 73
7 31 -17 81 -59 123 l-34 32 -31 -18 c-17 -10 -46 -41 -65 -70 -48 -72 -158
-161 -311 -254 -133 -80 -245 -213 -245 -290 0 -17 18 -65 41 -108 35 -66 40
-83 35 -117 -12 -72 -56 -173 -88 -200 -35 -30 -123 -76 -201 -105 l-52 -20
40 36 c156 143 172 160 178 193 16 80 1 129 -67 210 -43 51 -44 69 -11 178 31
99 56 131 174 215 359 258 441 327 441 369 0 25 1 25 -200 -56 -441 -179 -515
-216 -560 -280 -84 -120 -266 -263 -402 -315 -154 -60 -367 -90 -628 -90 -65
0 -143 -5 -172 -11 -30 -7 -122 -48 -211 -95 -87 -46 -160 -84 -163 -84 -14 0
37 68 84 110 59 55 122 82 244 104 105 20 377 46 477 46 148 0 274 35 371 101
25 17 79 74 120 127 160 203 226 252 527 383 317 139 413 191 413 223 0 10
-32 4 -119 -25 -151 -49 -408 -101 -666 -134 -296 -39 -478 -82 -840 -202
-257 -85 -286 -101 -450 -263 -96 -95 -157 -147 -194 -166 -30 -15 -150 -51
-268 -80 -212 -53 -582 -128 -591 -119 -6 6 -9 5 213 69 105 30 254 69 332 85
205 42 275 85 376 229 84 120 155 176 345 271 261 130 529 201 1092 286 126
19 211 39 360 86 107 33 236 74 286 89 108 34 222 88 283 136 78 61 104 113
126 257 l6 37 256 -2 256 -3 13 -61z"/>
<path d="M7970 8138 c-54 -28 -96 -91 -106 -160 l-6 -48 202 0 202 0 -7 43
c-18 113 -82 178 -183 185 -45 3 -67 -2 -102 -20z"/>
<path d="M10222 6843 c-35 -7 -96 -73 -110 -121 -20 -65 -25 -161 -13 -225 23
-125 73 -178 172 -185 86 -6 139 16 178 75 38 58 46 94 45 213 0 76 -5 103
-21 135 -25 48 -68 90 -106 104 -28 11 -100 13 -145 4z"/>
<path d="M6270 6909 l0 -181 163 4 c184 3 225 16 262 79 28 48 28 157 -1 195
-52 71 -96 83 -286 84 l-138 0 0 -181z"/>
<path d="M7287 6850 c-111 -21 -166 -132 -154 -310 7 -101 24 -146 71 -188 76
-67 185 -67 261 -1 51 45 70 105 69 224 -1 119 -14 173 -55 220 -42 47 -119
70 -192 55z"/>
<path d="M8085 6845 c-60 -16 -108 -64 -126 -127 -20 -67 -17 -233 4 -290 50
-129 209 -167 313 -76 55 49 67 87 68 218 1 125 -10 171 -51 221 -48 57 -123
77 -208 54z"/>
<path d="M9426 6850 c-64 -19 -125 -109 -126 -182 l0 -38 196 0 197 0 -6 52
c-15 127 -137 205 -261 168z"/>
<path d="M8001 5549 c-69 -27 -116 -94 -123 -174 l-3 -40 199 -3 199 -2 -6 45
c-7 51 -35 111 -64 137 -46 42 -144 60 -202 37z"/>
<path d="M6851 4164 c47 -48 204 -134 319 -175 36 -12 139 -64 229 -113 164
-91 165 -91 230 -176 104 -135 158 -182 274 -239 88 -44 230 -91 274 -91 8 0
13 12 13 30 0 16 5 52 11 79 10 46 8 56 -14 103 -13 29 -49 79 -78 110 -48 50
-73 66 -224 136 -132 62 -264 111 -585 218 -228 76 -433 144 -454 151 l-39 12
44 -45z"/>
</g>
</svg>
