<svg xmlns="http://www.w3.org/2000/svg" xmlns:xlink="http://www.w3.org/1999/xlink" width="1920" height="157" viewBox="0 0 1920 157"><defs><clipPath id="b"><rect width="1920" height="157"/></clipPath></defs><g id="a" clip-path="url(#b)"><g transform="translate(0 -2184)"><path d="M0,96.554H1920V153s-243.136-19.217-570.048,0-400.112,64.081-737.6,76.868S0,204.148,0,204.148Z" transform="translate(0 2087)" fill="#fff"/><path d="M0,96.554H1920V153s-243.136-19.217-570.048,0-400.112,64.081-737.6,76.868S0,204.148,0,204.148Z" transform="translate(0 2087)" fill="#212E33"/><path d="M13,109.291v-.747s239.05,19.056,581.186,0S994.324,49.8,1270.238,35.1c235.9-12.569,381,7.053,418.117,13.009-93.176-.851-209.247.742-338.4,8.335-326.911,19.217-400.111,64.081-737.6,76.868-48.036,1.82-94.859,2.6-139.746,2.6C242.4,135.919,61.7,115.4,13,109.291Z" transform="translate(0 2183.554)" fill="#4CAF50"/></g></g></svg>