<svg xmlns="http://www.w3.org/2000/svg" xmlns:xlink="http://www.w3.org/1999/xlink" width="168" height="158" viewBox="0 0 168 158"><defs><clipPath id="b"><rect width="168" height="158"/></clipPath></defs><g id="a" clip-path="url(#b)"><g transform="translate(8 -1)" opacity="0.1"><g transform="translate(-6 -17)"><g transform="translate(45.029 75) rotate(-45)"><path d="M4,19.5A2.5,2.5,0,0,1,6.5,17H20" fill="none" stroke="#fff" stroke-linecap="round" stroke-linejoin="round" stroke-width="2"/><path d="M6.5,2H20V22H6.5A2.5,2.5,0,0,1,4,19.5V4.5A2.5,2.5,0,0,1,6.5,2Z" fill="none" stroke="#fff" stroke-linecap="round" stroke-linejoin="round" stroke-width="2"/></g><g transform="translate(27 96.029) rotate(45)"><path d="M17,21V19a4,4,0,0,0-4-4H5a4,4,0,0,0-4,4v2" fill="none" stroke="#fff" stroke-linecap="round" stroke-linejoin="round" stroke-width="2"/><circle cx="4" cy="4" r="4" transform="translate(5 3)" fill="none" stroke="#fff" stroke-linecap="round" stroke-linejoin="round" stroke-width="2"/><path d="M23,21V19a4,4,0,0,0-3-3.87" fill="none" stroke="#fff" stroke-linecap="round" stroke-linejoin="round" stroke-width="2"/><path d="M16,3.13a4,4,0,0,1,0,7.75" fill="none" stroke="#fff" stroke-linecap="round" stroke-linejoin="round" stroke-width="2"/></g><g transform="translate(26 23.029) rotate(45)"><rect width="18" height="18" rx="2" transform="translate(3 3)" stroke-width="2" stroke="#fff" stroke-linecap="round" stroke-linejoin="round" fill="none"/><circle cx="1.5" cy="1.5" r="1.5" transform="translate(7 7)" fill="none" stroke="#fff" stroke-linecap="round" stroke-linejoin="round" stroke-width="2"/><path d="M21,15l-5-5L5,21" fill="none" stroke="#fff" stroke-linecap="round" stroke-linejoin="round" stroke-width="2"/></g><g transform="translate(103 23.029) rotate(45)"><rect width="14" height="20" rx="2" transform="translate(5 2)" stroke-width="2" stroke="#fff" stroke-linecap="round" stroke-linejoin="round" fill="none"/><line transform="translate(12 18)" stroke-width="2" stroke="#fff" stroke-linecap="round" stroke-linejoin="round" fill="none"/></g><g transform="translate(85.883 112.061) rotate(-45)"><path d="M18,8h1a4,4,0,0,1,0,8H18" fill="none" stroke="#fff" stroke-linecap="round" stroke-linejoin="round" stroke-width="2"/><path d="M2,8H18v9a4,4,0,0,1-4,4H6a4,4,0,0,1-4-4Z" fill="none" stroke="#fff" stroke-linecap="round" stroke-linejoin="round" stroke-width="2"/><line y2="3" transform="translate(6 1)" stroke-width="2" stroke="#fff" stroke-linecap="round" stroke-linejoin="round" fill="none"/><line y2="3" transform="translate(10 1)" stroke-width="2" stroke="#fff" stroke-linecap="round" stroke-linejoin="round" fill="none"/><line y2="3" transform="translate(14 1)" stroke-width="2" stroke="#fff" stroke-linecap="round" stroke-linejoin="round" fill="none"/></g></g><g transform="translate(121 47)"><circle cx="10" cy="10" r="10" transform="translate(2 2)" fill="none" stroke="#fff" stroke-linecap="round" stroke-linejoin="round" stroke-width="2"/><path d="M16.24,7.76l-2.12,6.36L7.76,16.24,9.88,9.88Z" fill="none" stroke="#fff" stroke-linecap="round" stroke-linejoin="round" stroke-width="2"/></g><g transform="translate(39.029 135) rotate(-45)"><rect width="20" height="20" rx="5" transform="translate(2 2)" stroke-width="2" stroke="#fff" stroke-linecap="round" stroke-linejoin="round" fill="none"/><path d="M16,11.37A4,4,0,1,1,12.63,8,4,4,0,0,1,16,11.37Z" fill="none" stroke="#fff" stroke-linecap="round" stroke-linejoin="round" stroke-width="2"/><line transform="translate(17.5 6.5)" stroke-width="2" stroke="#fff" stroke-linecap="round" stroke-linejoin="round" fill="none"/></g><g transform="translate(132 118.029) rotate(45)"><circle cx="10" cy="10" r="10" transform="translate(2 2)" fill="none" stroke="#fff" stroke-linecap="round" stroke-linejoin="round" stroke-width="2"/><path d="M9.09,9a3,3,0,0,1,5.83,1c0,2-3,3-3,3" fill="none" stroke="#fff" stroke-linecap="round" stroke-linejoin="round" stroke-width="2"/><line transform="translate(12 17)" stroke-width="2" stroke="#fff" stroke-linecap="round" stroke-linejoin="round" fill="none"/></g></g></g></svg>